<?xml version="1.0" encoding="UTF-8"?>
<svg id="Layer_1" data-name="Layer 1" xmlns="http://www.w3.org/2000/svg" viewBox="0 0 339.26 454.19">
  <defs>
    <style>
      .cls-1 {
        fill: #d7be97;
      }

      .cls-2 {
        fill: #d7bd96;
      }

      .cls-3 {
        fill: #d6bc95;
      }

      .cls-4 {
        fill: #d6bd95;
      }
    </style>
  </defs>
  <g>
    <path class="cls-3" d="M152.83,428.18l.03-354.12c0-2.91-1.66-4.78-4.6-4.86l-62.99.04c-2.44,0-3.88,2.42-3.77,4.4.11,1.93,1.69,3.96,3.89,3.98l21.1.12-.02,191.74c-6.12,2.02-9.88,7.81-9.24,14.06.61,5.92,5.16,11.06,11.36,11.91,7.23,1,13.51-3.38,15.15-10.32,1.56-6.61-2.23-13.39-8.95-15.69l.02-191.85,29.71.11-.02,350.41c-6.44,2.44-10.23,8.73-8.95,15.29,1.22,6.26,6.74,10.88,13.29,10.76,6.45-.12,11.93-4.78,12.97-11.11,1.06-6.44-2.6-12.54-8.98-14.89ZM115.75,282.28c0,2.84-2.3,5.14-5.14,5.14s-5.14-2.3-5.14-5.14,2.3-5.14,5.14-5.14,5.14,2.3,5.14,5.14ZM148.61,446.04c-2.83,0-5.12-2.29-5.12-5.12s2.29-5.12,5.12-5.12,5.12,2.29,5.12,5.12-2.29,5.12-5.12,5.12Z"/>
    <path class="cls-4" d="M253.72,69.22l-62.99.02c-2.37,0-4.32,1.98-4.32,4.43v354.56c-6.29,2.38-10.15,8.65-8.84,15.19,1.25,6.24,6.81,10.86,13.27,10.76,6.48-.1,11.92-4.81,12.99-11.1,1.09-6.43-2.71-12.6-9.04-14.92l-.03-350.51,29.69.04-.02,191.84c-4.46,1.45-7.2,4.72-8.41,8.07-1.56,4.3-.88,8.47,1.5,12.06,3.34,5.05,9.53,7.15,15.45,5.25,5.23-1.67,9.12-6.82,9.12-12.8,0-5.62-3.7-10.76-9.35-12.67V77.74s20.91-.09,20.91-.09c2.47-.01,4.18-2.05,4.1-4.29-.07-2.01-1.61-4.13-4.05-4.13ZM195.75,440.9c0,2.83-2.3,5.13-5.13,5.13s-5.13-2.3-5.13-5.13,2.3-5.13,5.13-5.13,5.13,2.3,5.13,5.13ZM233.76,282.3c0,2.84-2.3,5.14-5.14,5.14s-5.14-2.3-5.14-5.14,2.3-5.14,5.14-5.14,5.14,2.3,5.14,5.14Z"/>
  </g>
  <path class="cls-1" d="M327.74.15c-6.31-.98-12.4,2.88-14.69,9.19H26.14C24.11,3.44,18.7-.27,12.77.05,7.03.35,1.96,4.26.46,10.03c-1.9,7.17,2.31,14.33,9.11,16.32,7.01,2.06,14.05-1.6,16.54-8.58l287.04.02c2.39,6.53,8.66,10.09,15.21,8.9,6.09-1.11,11.03-6.54,10.92-13.4-.16-6.97-5.13-12.15-11.52-13.13ZM13.2,18.67c-2.83-.09-5.04-2.46-4.95-5.29.09-2.83,2.46-5.04,5.29-4.94,2.83.09,5.04,2.46,4.95,5.29-.09,2.83-2.46,5.04-5.29,4.94ZM325.87,18.68c-2.83,0-5.13-2.3-5.13-5.13s2.3-5.13,5.13-5.13,5.13,2.3,5.13,5.13-2.3,5.13-5.13,5.13Z"/>
  <path class="cls-2" d="M322.2,51.96c-8.31-7.48-19.2-12.71-30.63-12.71l-242.44-.03c-12.4,0-23.96,5.37-32.75,13.71-8.82,8.36-14.06,19.36-15.34,31.44-2.51,23.58,14.24,45.04,38.45,47.02,5.24.43,10.15.11,15.42-.59,2.3-.12,4.6-1.85,4.61-4.32l.08-20.24c7.32-2.52,11.12-10.36,8.68-17.45-2.48-7.2-10.38-11.04-17.74-8.25-5.41,2.06-8.75,7.38-8.59,13.04.16,5.54,3.73,10.55,9.34,12.58l.04,16.65c-4.77.61-9.17.78-13.79.02-13.48-2.2-24.06-12-27.37-25.19-6.06-24.16,13.82-50.08,39.36-50.08l241.07.05c20.41,0,36.83,16.6,39.29,35.92,2.08,16.25-6.33,31.41-21.32,37.79-6.67,2.68-13.74,3.25-20.85,2.16v-17.29c7.19-2.5,11-10.06,8.74-17.06-2.32-7.18-9.83-11.21-17.14-8.81-5.65,1.93-9.19,7.13-9.27,12.91-.07,5.78,3.63,10.96,9.31,12.87l.16,21.58c.02,2.41,2.61,3.79,4.76,3.83,8.15,1.24,16.06,1.28,23.96-1.25,16.79-5.37,28.69-20.26,30.07-38.06,1.16-15.07-4.85-30.08-16.11-40.23ZM50.34,93.2c0-2.85,2.31-5.16,5.16-5.16s5.16,2.31,5.16,5.16-2.31,5.16-5.16,5.16-5.16-2.31-5.16-5.16ZM283.58,98.38c-2.86,0-5.18-2.32-5.18-5.18s2.32-5.18,5.18-5.18,5.18,2.32,5.18,5.18-2.32,5.18-5.18,5.18Z"/>
</svg>